<svg width="60" height="60" viewBox="0 0 60 60" fill="none" xmlns="http://www.w3.org/2000/svg">
<path d="M24.9 19.314L19.951 14.364C19.7635 14.1765 19.5092 14.0712 19.244 14.0712C18.9789 14.0712 18.7246 14.1765 18.5371 14.364L16.4151 16.485C16.1365 16.7636 15.8057 16.9846 15.4417 17.1354C15.0777 17.2862 14.6876 17.3638 14.2936 17.3638C13.8995 17.3638 13.5094 17.2862 13.1454 17.1354C12.7814 16.9846 12.4506 16.7636 12.172 16.485L11.93 16.243C11.6514 15.9644 11.4304 15.6336 11.2796 15.2696C11.1288 14.9056 11.0512 14.5155 11.0512 14.1215C11.0512 13.7274 11.1288 13.3373 11.2796 12.9733C11.4304 12.6093 11.6514 12.2785 11.93 12L14.0511 9.87795C14.2385 9.69043 14.3438 9.43612 14.3438 9.17095C14.3438 8.90579 14.2385 8.65148 14.0511 8.46395L9.10005 3.51495C8.91252 3.32748 8.65821 3.22217 8.39305 3.22217C8.12788 3.22217 7.87358 3.32748 7.68605 3.51495L5.56505 5.63595C3.87964 7.32508 2.93311 9.6138 2.93311 12C2.93311 14.3861 3.87964 16.6748 5.56505 18.364L10.05 22.849C11.7392 24.5344 14.0279 25.4809 16.414 25.4809C18.8002 25.4809 21.0889 24.5344 22.778 22.849L24.9 20.728C25.0875 20.5404 25.1928 20.2861 25.1928 20.021C25.1928 19.7558 25.0875 19.5015 24.9 19.314ZM19.244 16.485L22.779 20.021L22.0721 20.728L18.5371 17.192L19.244 16.485ZM8.39405 5.63595L11.929 9.17095L11.222 9.87895L7.68605 6.34295L8.39405 5.63595ZM11.464 21.436L6.97905 16.95C5.79086 15.7585 5.07073 14.1795 4.95012 12.5012C4.8295 10.8228 5.31644 9.15707 6.32205 7.80795L9.87805 11.364C9.24428 12.3261 8.96158 13.4774 9.07762 14.6237C9.19365 15.77 9.70131 16.8413 10.515 17.657L10.757 17.899C11.573 18.7122 12.6442 19.2195 13.7904 19.3355C14.9365 19.4515 16.0877 19.1692 17.05 18.536L20.6061 22.092C19.2569 23.0974 17.5912 23.5842 15.9129 23.4636C14.2346 23.343 12.6556 22.623 11.464 21.435V21.436Z" fill="white"/>
<path d="M25 30H3C2.20435 30 1.44129 29.6839 0.87868 29.1213C0.316071 28.5587 0 27.7956 0 27V3C0 2.20435 0.316071 1.44129 0.87868 0.87868C1.44129 0.316071 2.20435 0 3 0H25C25.7956 0 26.5587 0.316071 27.1213 0.87868C27.6839 1.44129 28 2.20435 28 3V27C28 27.7956 27.6839 28.5587 27.1213 29.1213C26.5587 29.6839 25.7956 30 25 30ZM3 2C2.73478 2 2.48043 2.10536 2.29289 2.29289C2.10536 2.48043 2 2.73478 2 3V27C2 27.2652 2.10536 27.5196 2.29289 27.7071C2.48043 27.8946 2.73478 28 3 28H25C25.2652 28 25.5196 27.8946 25.7071 27.7071C25.8946 27.5196 26 27.2652 26 27V3C26 2.73478 25.8946 2.48043 25.7071 2.29289C25.5196 2.10536 25.2652 2 25 2H3Z" fill="white"/>
<path d="M25 60H3C2.20435 60 1.44129 59.6839 0.87868 59.1213C0.316071 58.5587 0 57.7956 0 57V35C0 34.2044 0.316071 33.4413 0.87868 32.8787C1.44129 32.3161 2.20435 32 3 32H25C25.7956 32 26.5587 32.3161 27.1213 32.8787C27.6839 33.4413 28 34.2044 28 35V57C28 57.7956 27.6839 58.5587 27.1213 59.1213C26.5587 59.6839 25.7956 60 25 60ZM3 34C2.73478 34 2.48043 34.1054 2.29289 34.2929C2.10536 34.4804 2 34.7348 2 35V57C2 57.2652 2.10536 57.5196 2.29289 57.7071C2.48043 57.8946 2.73478 58 3 58H25C25.2652 58 25.5196 57.8946 25.7071 57.7071C25.8946 57.5196 26 57.2652 26 57V35C26 34.7348 25.8946 34.4804 25.7071 34.2929C25.5196 34.1054 25.2652 34 25 34H3Z" fill="white"/>
<path d="M23 39H5C4.73478 39 4.48043 39.1054 4.29289 39.2929C4.10536 39.4804 4 39.7348 4 40V52C4 52.2652 4.10536 52.5196 4.29289 52.7071C4.48043 52.8946 4.73478 53 5 53H23C23.2652 53 23.5196 52.8946 23.7071 52.7071C23.8946 52.5196 24 52.2652 24 52V40C24 39.7348 23.8946 39.4804 23.7071 39.2929C23.5196 39.1054 23.2652 39 23 39ZM14 46.65L7.632 41H20.366L14 46.65ZM10.266 46.009L6 49.78V42.225L10.266 46.009ZM11.772 47.346L12.672 48.146C13.0376 48.4773 13.5131 48.6612 14.0065 48.6621C14.4999 48.6631 14.9761 48.4809 15.343 48.151L16.243 47.351L20.361 51H7.639L11.772 47.346ZM17.744 46.009L22 42.225V49.78L17.744 46.009Z" fill="white"/>
<path d="M57 0H35C34.2044 0 33.4413 0.316071 32.8787 0.87868C32.3161 1.44129 32 2.20435 32 3V27C32 27.7956 32.3161 28.5587 32.8787 29.1213C33.4413 29.6839 34.2044 30 35 30H40V42.538L38.83 40.059C38.6137 39.3272 38.1233 38.7071 37.461 38.328C36.7705 37.9296 35.95 37.8217 35.18 38.028L34.259 38.276C33.9962 38.3468 33.7506 38.4706 33.5373 38.6396C33.324 38.8087 33.1475 39.0195 33.0185 39.2591C32.8895 39.4988 32.8107 39.7622 32.7871 40.0334C32.7635 40.3045 32.7954 40.5776 32.881 40.836L37.055 52.96C37.0951 53.0771 37.1568 53.1857 37.237 53.28L39.946 56.48L40 59.021C40.0055 59.2826 40.1133 59.5316 40.3002 59.7146C40.4872 59.8976 40.7384 60.0001 41 60H55C55.2652 60 55.5196 59.8946 55.7071 59.7071C55.8946 59.5196 56 59.2652 56 59V56.3L57.832 53.552C57.9407 53.3883 57.9991 53.1965 58 53V40C58.003 39.608 57.9271 39.2194 57.777 38.8573C57.6268 38.4952 57.4055 38.1669 57.126 37.892C56.7093 37.4812 56.1835 37.1986 55.6109 37.0777C55.0384 36.9568 54.4432 37.0027 53.896 37.21C53.7632 36.7092 53.4971 36.2537 53.126 35.892C52.7092 35.4814 52.1833 35.1989 51.6109 35.0781C51.0384 34.9572 50.4433 35.003 49.896 35.21C49.7632 34.7092 49.4971 34.2537 49.126 33.892C48.7232 33.4936 48.2174 33.2152 47.6653 33.0878C47.1133 32.9605 46.5366 32.9893 46 33.171V30H57C57.7956 30 58.5587 29.6839 59.1213 29.1213C59.6839 28.5587 60 27.7956 60 27V3C60 2.20435 59.6839 1.44129 59.1213 0.87868C58.5587 0.316071 57.7956 0 57 0ZM47 35C47.1333 34.9996 47.2653 35.0265 47.3877 35.0791C47.5102 35.1318 47.6206 35.209 47.712 35.306C47.8043 35.3963 47.8775 35.5043 47.927 35.6236C47.9765 35.7428 48.0013 35.8709 48 36V43C48 43.2652 48.1054 43.5196 48.2929 43.7071C48.4804 43.8946 48.7348 44 49 44C49.2652 44 49.5196 43.8946 49.7071 43.7071C49.8946 43.5196 50 43.2652 50 43V38C50 37.7348 50.1054 37.4804 50.2929 37.2929C50.4804 37.1054 50.7348 37 51 37C51.1333 36.9996 51.2653 37.0265 51.3877 37.0791C51.5102 37.1318 51.6206 37.209 51.712 37.306C51.8043 37.3963 51.8775 37.5043 51.927 37.6236C51.9765 37.7428 52.0013 37.8709 52 38V43C52 43.2652 52.1054 43.5196 52.2929 43.7071C52.4804 43.8946 52.7348 44 53 44C53.2652 44 53.5196 43.8946 53.7071 43.7071C53.8946 43.5196 54 43.2652 54 43V40C54 39.7348 54.1054 39.4804 54.2929 39.2929C54.4804 39.1054 54.7348 39 55 39C55.1333 38.9996 55.2653 39.0265 55.3877 39.0791C55.5102 39.1318 55.6206 39.209 55.712 39.306C55.8043 39.3963 55.8775 39.5043 55.927 39.6236C55.9765 39.7428 56.0013 39.8709 56 40V52.7L54.168 55.448C54.0593 55.6117 54.0009 55.8035 54 56V58H41.979L41.938 56.079C41.9335 55.8494 41.8502 55.6284 41.702 55.453L38.884 52.127L34.779 40.2L35.693 39.954C35.9522 39.8848 36.2282 39.9208 36.461 40.054C36.574 40.1184 36.673 40.2046 36.7523 40.3076C36.8316 40.4106 36.8896 40.5283 36.923 40.654C36.938 40.713 40.096 47.417 40.096 47.417C40.1927 47.6216 40.3559 47.7873 40.559 47.8871C40.7621 47.9869 40.993 48.0148 41.214 47.9664C41.435 47.918 41.6331 47.7961 41.7759 47.6206C41.9186 47.445 41.9976 47.2262 42 47V27.112C41.9892 26.8478 42.0755 26.5889 42.2426 26.384C42.4097 26.1791 42.6461 26.0425 42.907 26C43.0552 25.9851 43.2048 26.0044 43.3444 26.0565C43.4839 26.1085 43.6097 26.1918 43.712 26.3C43.8051 26.391 43.8786 26.5 43.9281 26.6203C43.9777 26.7407 44.0021 26.8699 44 27V43C44 43.2652 44.1054 43.5196 44.2929 43.7071C44.4804 43.8946 44.7348 44 45 44C45.2652 44 45.5196 43.8946 45.7071 43.7071C45.8946 43.5196 46 43.2652 46 43V36C46 35.7348 46.1054 35.4804 46.2929 35.2929C46.4804 35.1054 46.7348 35 47 35ZM58 27C58 27.2652 57.8946 27.5196 57.7071 27.7071C57.5196 27.8946 57.2652 28 57 28H46V27C46.003 26.608 45.9271 26.2194 45.777 25.8573C45.6268 25.4952 45.4055 25.1669 45.126 24.892C44.8184 24.5773 44.4446 24.3349 44.0318 24.1825C43.6189 24.0302 43.1773 23.9716 42.739 24.011C41.9787 24.095 41.2769 24.4591 40.7705 25.0324C40.2641 25.6057 39.9894 26.3471 40 27.112V28H35C34.7348 28 34.4804 27.8946 34.2929 27.7071C34.1054 27.5196 34 27.2652 34 27V3C34 2.73478 34.1054 2.48043 34.2929 2.29289C34.4804 2.10536 34.7348 2 35 2H57C57.2652 2 57.5196 2.10536 57.7071 2.29289C57.8946 2.48043 58 2.73478 58 3V27Z" fill="white"/>
<path d="M46 6C43.8783 6 41.8434 6.84285 40.3431 8.34315C38.8429 9.84344 38 11.8783 38 14C38 16.1217 38.8429 18.1566 40.3431 19.6569C41.8434 21.1571 43.8783 22 46 22H50C50.2652 22 50.5196 21.8946 50.7071 21.7071C50.8946 21.5196 51 21.2652 51 21C51 20.7348 50.8946 20.4804 50.7071 20.2929C50.5196 20.1054 50.2652 20 50 20H46C44.8133 20 43.6533 19.6481 42.6666 18.9888C41.6799 18.3295 40.9108 17.3925 40.4567 16.2961C40.0026 15.1997 39.8838 13.9933 40.1153 12.8295C40.3468 11.6656 40.9182 10.5965 41.7574 9.75736C42.5965 8.91824 43.6656 8.3468 44.8295 8.11529C45.9933 7.88378 47.1997 8.0026 48.2961 8.45672C49.3925 8.91085 50.3295 9.67988 50.9888 10.6666C51.6481 11.6533 52 12.8133 52 14V15C52 15.2652 51.8946 15.5196 51.7071 15.7071C51.5196 15.8946 51.2652 16 51 16C50.7348 16 50.4804 15.8946 50.2929 15.7071C50.1054 15.5196 50 15.2652 50 15V14C50.0076 13.0718 49.6948 12.1694 49.1143 11.4451C48.5339 10.7208 47.7213 10.2188 46.8138 10.0239C45.9063 9.82908 44.9593 9.95322 44.1327 10.3754C43.306 10.7976 42.6504 11.4921 42.2762 12.3416C41.9021 13.191 41.8325 14.1436 42.079 15.0384C42.3256 15.9333 42.8733 16.7157 43.6298 17.2537C44.3862 17.7916 45.305 18.0522 46.2312 17.9914C47.1575 17.9306 48.0344 17.5522 48.714 16.92C49.107 17.3938 49.6367 17.7346 50.2308 17.8958C50.8249 18.057 51.4542 18.0307 52.0328 17.8205C52.6114 17.6104 53.1109 17.2266 53.463 16.7218C53.8151 16.2169 54.0027 15.6155 54 15V14C53.9976 11.879 53.154 9.84555 51.6542 8.34578C50.1544 6.846 48.121 6.00238 46 6ZM46 16C45.6044 16 45.2178 15.8827 44.8889 15.6629C44.56 15.4432 44.3036 15.1308 44.1522 14.7654C44.0009 14.3999 43.9613 13.9978 44.0384 13.6098C44.1156 13.2219 44.3061 12.8655 44.5858 12.5858C44.8655 12.3061 45.2219 12.1156 45.6098 12.0384C45.9978 11.9613 46.3999 12.0009 46.7654 12.1522C47.1308 12.3036 47.4432 12.56 47.6629 12.8889C47.8827 13.2178 48 13.6044 48 14C48 14.5304 47.7893 15.0391 47.4142 15.4142C47.0391 15.7893 46.5304 16 46 16Z" fill="white"/>
</svg>
