<svg width="60" height="56" viewBox="0 0 60 56" fill="none" xmlns="http://www.w3.org/2000/svg">
<path d="M59.1211 9.39316C59.6065 9.39316 60 8.99977 60 8.51426V6.89168C60 3.09973 56.915 0.0146484 53.1231 0.0146484H6.87691C3.08496 0.0146484 0 3.09961 0 6.89168V35.6624C0 39.4542 3.08496 42.5393 6.87691 42.5393H19.9515C20.4137 42.5393 20.845 42.7877 21.0766 43.1877L27.7315 54.6772C28.7409 56.4203 31.2581 56.4226 32.2687 54.6772L38.9237 43.1877C39.1554 42.7877 39.5864 42.5393 40.0487 42.5393H53.1232C56.9152 42.5393 60.0001 39.4543 60.0001 35.6624V12.7759C60.0001 12.2904 59.6066 11.897 59.1212 11.897C58.6358 11.897 58.2423 12.2904 58.2423 12.7759V35.6623C58.2423 38.485 55.9459 40.7814 53.1232 40.7814H40.0486C38.9613 40.7814 37.9474 41.3658 37.4025 42.3067L30.7475 53.7962C30.4144 54.3717 29.5852 54.3707 29.2525 53.7962L22.5976 42.3066C22.0527 41.3659 21.0387 40.7814 19.9515 40.7814H6.87691C4.05422 40.7814 1.75781 38.485 1.75781 35.6623V6.89168C1.75781 4.06898 4.05422 1.77246 6.87691 1.77246H53.1231C55.9458 1.77246 58.2422 4.06898 58.2422 6.89168V8.51437C58.2422 8.99977 58.6357 9.39316 59.1211 9.39316Z" fill="#CDADAD"/>
<path d="M35.0736 31.1027H18.7701C18.2847 31.1027 17.8912 31.4961 17.8912 31.9816C17.8912 32.4671 18.2847 32.8605 18.7701 32.8605H35.0736C37.5869 32.8605 39.6317 30.8158 39.6317 28.3024V26.9483H42.4242L46.1687 30.4517C47.8957 32.0677 50.7167 30.8431 50.7167 28.4787V14.0749C50.7167 11.708 47.8937 10.4875 46.1687 12.1018L42.4242 15.6052H39.6317V14.2511C39.6317 11.7378 37.587 9.69299 35.0736 9.69299H13.8416C11.3283 9.69299 9.28345 11.7377 9.28345 14.2511V28.3022C9.28345 30.8156 11.3281 32.8604 13.8416 32.8604H14.6544C15.1398 32.8604 15.5333 32.467 15.5333 31.9815C15.5333 31.496 15.1398 31.1026 14.6544 31.1026H13.8416C12.2975 31.1026 11.0413 29.8463 11.0413 28.3022V14.2512C11.0413 12.7072 12.2975 11.4509 13.8416 11.4509H35.0736C36.6177 11.4509 37.8739 12.7072 37.8739 14.2512V28.3024C37.8739 29.8464 36.6177 31.1027 35.0736 31.1027ZM43.6501 16.8656L47.3695 13.3855C47.9725 12.8212 48.9588 13.2487 48.9588 14.075V28.479C48.9588 29.305 47.9728 29.7328 47.3695 29.1684L43.6501 25.6883V16.8656ZM39.6317 17.3631H41.8924V25.1906H39.6317V17.3631Z" fill="#CDADAD"/>
</svg>
