<svg width="60" height="60" viewBox="0 0 60 60" fill="none" xmlns="http://www.w3.org/2000/svg">
<path d="M54.1406 36.5624C54.0989 36.5624 54.0577 36.5648 54.0162 36.5656C52.6918 33.6642 50.392 31.0427 47.3156 28.9417C43.9922 26.6742 39.8918 25.1015 35.4562 24.3925C35.1212 24.3386 34.7743 24.4359 34.5154 24.655C34.3009 24.8367 34.1591 25.0886 34.1145 25.3652C34.0138 26.0038 34.4496 26.605 35.0872 26.707C39.1841 27.3597 42.9563 28.8023 45.9938 30.8777C48.5414 32.6156 50.5068 34.7695 51.6773 37.1038L51.6811 37.1057C49.6758 38.0371 48.2812 40.0692 48.2812 42.4218V42.9882H11.7188V42.4218C11.7188 40.069 10.3242 38.0371 8.31902 37.1056L8.32266 37.1038C9.4957 34.7648 11.4656 32.6085 14.0203 30.8683C17.066 28.7906 20.8453 27.3503 24.9516 26.7011C25.5891 26.6003 26.0262 25.998 25.9254 25.3605C25.882 25.0828 25.7402 24.8308 25.5258 24.6492C25.2668 24.43 24.9211 24.3328 24.5848 24.3867C20.141 25.0898 16.0312 26.6613 12.6996 28.9312C9.61523 31.0335 7.30957 33.6587 5.98359 36.5656C5.94211 36.5648 5.90098 36.5624 5.85938 36.5624C2.62852 36.5624 0 39.191 0 42.4218C0 44.782 1.40707 46.8762 3.51562 47.7942V58.8281C3.51562 59.4753 4.04027 59.9999 4.6875 59.9999H10.5469C11.1941 59.9999 11.7188 59.4753 11.7188 58.8281V58.3397H48.2812V58.8281C48.2812 59.4753 48.806 59.9999 49.4531 59.9999H55.3125C55.9596 59.9999 56.4844 59.4753 56.4844 58.8281V47.7942C58.5929 46.8762 60 44.782 60 42.4218C60 39.191 57.3715 36.5624 54.1406 36.5624ZM24.6094 48.2616V45.3319H35.3906V48.2616H24.6094ZM11.7188 48.2616V45.3319H22.2656V48.2616H11.7188ZM37.7344 45.3319H48.2812V48.2616H37.7344V45.3319ZM9.375 57.6562H5.85938V46.9617C5.85938 46.4269 5.4975 45.9601 4.97965 45.8267C3.42773 45.4273 2.34375 44.0272 2.34375 42.4218C2.34375 40.4833 3.92086 38.9062 5.85938 38.9062C7.79789 38.9062 9.375 40.4833 9.375 42.4218V57.6562ZM11.7188 55.996V50.6054H48.2812V55.996H11.7188ZM55.0205 45.8267C54.5026 45.9601 54.1406 46.4269 54.1406 46.9617V57.6562H50.625V42.4218C50.625 40.4833 52.2021 38.9062 54.1406 38.9062C56.0791 38.9062 57.6562 40.4833 57.6562 42.4218C57.6562 44.0272 56.5724 45.4273 55.0205 45.8267Z" fill="#CDADAD"/>
<path d="M32.3438 21.0938H49.3568L55.2859 24.7295C55.4736 24.8446 55.6859 24.9023 55.8986 24.9023C56.0957 24.9023 56.2929 24.8527 56.471 24.753C56.8412 24.5459 57.0704 24.1548 57.0704 23.7305V5.85938C57.0704 2.62852 54.4419 0 51.2111 0H32.3438C29.1129 0 26.4844 2.62852 26.4844 5.85938V15.2344C26.4844 18.4652 29.1129 21.0938 32.3438 21.0938ZM28.8281 5.85938C28.8281 3.92086 30.4052 2.34375 32.3438 2.34375H51.2109C53.1495 2.34375 54.7266 3.92086 54.7266 5.85938V21.6373L50.3002 18.9229C50.1157 18.8099 49.9038 18.75 49.6875 18.75H32.3438C30.4052 18.75 28.8281 17.1729 28.8281 15.2344V5.85938Z" fill="#CDADAD"/>
<path d="M5.85938 43.5938C6.50658 43.5938 7.03125 43.0691 7.03125 42.4219C7.03125 41.7747 6.50658 41.25 5.85938 41.25C5.21217 41.25 4.6875 41.7747 4.6875 42.4219C4.6875 43.0691 5.21217 43.5938 5.85938 43.5938Z" fill="#CDADAD"/>
<path d="M54.1406 43.5938C54.7878 43.5938 55.3125 43.0691 55.3125 42.4219C55.3125 41.7747 54.7878 41.25 54.1406 41.25C53.4934 41.25 52.9688 41.7747 52.9688 42.4219C52.9688 43.0691 53.4934 43.5938 54.1406 43.5938Z" fill="#CDADAD"/>
<path d="M34.2188 16.4062H49.4531C50.1002 16.4062 50.625 15.8816 50.625 15.2344C50.625 14.5871 50.1002 14.0625 49.4531 14.0625H34.2188C33.5716 14.0625 33.0469 14.5871 33.0469 15.2344C33.0469 15.8816 33.5716 16.4062 34.2188 16.4062Z" fill="#CDADAD"/>
<path d="M34.2188 11.7188H49.4531C50.1002 11.7188 50.625 11.1941 50.625 10.5469C50.625 9.89965 50.1002 9.375 49.4531 9.375H34.2188C33.5716 9.375 33.0469 9.89965 33.0469 10.5469C33.0469 11.1941 33.5716 11.7188 34.2188 11.7188Z" fill="#CDADAD"/>
<path d="M35.9766 7.03125H49.4531C50.1002 7.03125 50.625 6.5066 50.625 5.85938C50.625 5.21215 50.1002 4.6875 49.4531 4.6875H35.9766C35.3295 4.6875 34.8047 5.21215 34.8047 5.85938C34.8047 6.5066 35.3295 7.03125 35.9766 7.03125Z" fill="#CDADAD"/>
<path d="M30.0211 26.3086C30.6683 26.3086 31.193 25.7839 31.193 25.1367C31.193 24.4895 30.6683 23.9648 30.0211 23.9648C29.3739 23.9648 28.8492 24.4895 28.8492 25.1367C28.8492 25.7839 29.3739 26.3086 30.0211 26.3086Z" fill="#CDADAD"/>
</svg>
