<svg width="55" height="60" viewBox="0 0 55 60" fill="none" xmlns="http://www.w3.org/2000/svg">
<path d="M27.7018 40.981C29.8141 40.981 31.5327 39.2626 31.5327 37.1504C31.5327 35.0381 29.8143 33.3196 27.7018 33.3196C25.5897 33.3196 23.8712 35.038 23.8712 37.1504C23.8713 39.2626 25.5898 40.981 27.7018 40.981ZM27.7018 35.0775C28.8449 35.0775 29.7748 36.0074 29.7748 37.1504C29.7748 38.2934 28.8449 39.2231 27.7018 39.2231C26.5589 39.2231 25.6291 38.2932 25.6291 37.1504C25.6291 36.0075 26.5589 35.0775 27.7018 35.0775Z" fill="#CDADAD"/>
<path d="M44.6952 12.697C48.1958 12.697 51.0438 9.84912 51.0438 6.34862C51.0439 2.84789 48.1958 0 44.6952 0C41.1947 0 38.3469 2.84789 38.3469 6.3485C38.3469 9.849 41.1948 12.697 44.6952 12.697ZM44.6952 1.75793C47.2266 1.75793 49.2859 3.81726 49.2859 6.3485C49.2859 8.87975 47.2266 10.939 44.6952 10.939C42.1641 10.939 40.1049 8.87975 40.1049 6.3485C40.1049 3.81726 42.1641 1.75793 44.6952 1.75793Z" fill="#CDADAD"/>
<path d="M54.1012 22.4683C53.6156 22.4683 53.2222 22.8617 53.2222 23.3472V35.3741C53.2222 35.6871 52.9676 35.9418 52.6547 35.9418H50.5102V20.4271C50.5102 19.9416 50.1168 19.5482 49.6313 19.5482C49.1458 19.5482 48.7524 19.9416 48.7524 20.4271V57.6745C48.7524 57.9874 48.4977 58.2421 48.1848 58.2421H46.1421C45.8291 58.2421 45.5745 57.9874 45.5745 57.6745V43.6917C45.5745 43.2063 45.1811 42.8128 44.6956 42.8128C44.2101 42.8128 43.8167 43.2063 43.8167 43.6917V57.6745C43.8167 57.9874 43.562 58.2421 43.2491 58.2421H41.2064C40.8936 58.2421 40.6389 57.9874 40.6389 57.6745V20.4271C40.6389 19.9416 40.2455 19.5482 39.76 19.5482C39.2745 19.5482 38.8811 19.9416 38.8811 20.4271V35.9419H36.7366C36.4238 35.9419 36.1692 35.6874 36.169 35.375V20.4244C36.169 17.5378 38.5175 15.1893 41.4041 15.1893H47.9875C50.8742 15.1893 53.2226 17.5378 53.2226 20.4244C53.2226 20.9099 53.616 21.3033 54.1015 21.3033C54.587 21.3033 54.9804 20.9099 54.9804 20.4244C54.9804 16.5685 51.8433 13.4314 47.9874 13.4314H41.4036C37.5476 13.4314 34.4105 16.5685 34.4105 20.4244V35.3753C34.4111 36.6572 35.4543 37.6998 36.736 37.6998H38.8805V57.6745C38.8805 58.9568 39.9237 60 41.206 60H43.2487C43.7954 60 44.2977 59.8091 44.6952 59.4921C45.0927 59.8091 45.5951 60 46.1419 60H48.1846C49.4669 60 50.5101 58.9569 50.5101 57.6745V37.6997H52.6546C53.9369 37.6997 54.9801 36.6564 54.9801 35.3741V23.3472C54.9802 22.8617 54.5867 22.4683 54.1012 22.4683Z" fill="#CDADAD"/>
<path d="M9.31568 18.0697C12.8163 18.0697 15.6643 15.2218 15.6643 11.7213C15.6643 8.22069 12.8163 5.3728 9.31568 5.3728C5.81518 5.3728 2.96741 8.22069 2.96741 11.7213C2.96752 15.2218 5.81518 18.0697 9.31568 18.0697ZM9.31568 7.13073C11.847 7.13073 13.9064 9.19006 13.9064 11.7213C13.9064 14.2526 11.847 16.3118 9.31568 16.3118C6.78455 16.3118 4.72533 14.2526 4.72533 11.7213C4.72545 9.19006 6.78467 7.13073 9.31568 7.13073Z" fill="#CDADAD"/>
<path d="M12.2063 18.895H6.42558C2.98063 18.895 0.177979 21.6977 0.177979 25.1426V38.2705C0.17833 39.4551 1.14231 40.4187 2.32708 40.4187H2.35368L1.74524 45.9563C1.71805 46.2046 1.79762 46.4528 1.96426 46.6388C2.13102 46.8249 2.36903 46.9311 2.61887 46.9311H4.10305V57.851C4.10305 59.036 5.06727 60.0001 6.25215 60.0001H8.04582C8.52124 60.0001 8.95964 59.8431 9.31601 59.5807C9.67237 59.8431 10.1107 60.0001 10.5863 60.0001H12.38C13.565 60.0001 14.5291 59.036 14.5291 57.851V52.9977C14.5291 52.5122 14.1357 52.1188 13.6502 52.1188C13.1647 52.1188 12.7713 52.5122 12.7713 52.9977V57.851C12.7713 58.0667 12.5958 58.2422 12.3801 58.2422H10.5864C10.3707 58.2422 10.1951 58.0667 10.1951 57.851V48.463C10.1951 47.9775 9.80175 47.5841 9.31624 47.5841C8.83074 47.5841 8.43734 47.9775 8.43734 48.463V57.851C8.43734 58.0667 8.26191 58.2422 8.04617 58.2422H6.25203C6.03629 58.2422 5.86086 58.0667 5.86086 57.851V46.9311H12.7709V50.1843C12.7709 50.6696 13.1643 51.0632 13.6498 51.0632C14.1353 51.0632 14.5287 50.6696 14.5287 50.1843V46.9311H16.0128C16.2626 46.9311 16.5006 46.8249 16.6673 46.6388C16.834 46.4528 16.9136 46.2046 16.8864 45.9563L16.278 40.4187H16.3046C17.4896 40.4187 18.4537 39.4548 18.4537 38.2697V25.1425C18.4537 21.6977 15.651 18.895 12.2063 18.895ZM16.6959 38.2696C16.6958 38.4852 16.5203 38.6606 16.3046 38.6606H16.0849L14.4758 24.0174C14.4227 23.535 13.9884 23.1882 13.506 23.2397C13.0236 23.2927 12.6754 23.7269 12.7284 24.2093L15.0321 45.1731H14.2048H13.6499H4.98195H4.26008H3.59973L5.9034 24.2093C5.95637 23.7269 5.6082 23.2927 5.12574 23.2397C4.64235 23.1881 4.20899 23.535 4.15602 24.0174L2.54692 38.6606H2.32719C2.11157 38.6606 1.93614 38.4853 1.93602 38.2701V25.1425C1.93602 22.6669 3.95012 20.6528 6.4257 20.6528H12.2063C14.6818 20.6528 16.6959 22.6669 16.6959 25.1425V38.2696Z" fill="#CDADAD"/>
<path d="M34.363 38.0578C33.7341 38.0776 33.1503 38.3412 32.7197 38.7999L29.4417 42.2906H26.0486L22.7705 38.7997C21.8812 37.8531 20.3875 37.8061 19.4402 38.6952C18.4935 39.5844 18.4464 41.0782 19.3354 42.0253L23.1359 46.0725V57.7031C23.1359 58.9697 24.1663 60 25.4329 60H30.0572C31.3238 60 32.354 58.9697 32.354 57.7031V52.8798C32.354 52.3943 31.9606 52.0009 31.4751 52.0009C30.9896 52.0009 30.5962 52.3943 30.5962 52.8798V57.7031C30.5962 58.0003 30.3544 58.242 30.0573 58.242H28.5826V50.911C28.5826 50.4255 28.1892 50.0321 27.7037 50.0321C27.2184 50.0321 26.8248 50.4255 26.8248 50.911V58.242H25.433C25.1358 58.242 24.8939 58.0003 24.8939 57.7031V45.7244C24.8939 45.501 24.8087 45.2858 24.6558 45.1228L20.6173 40.8221C20.3916 40.5817 20.4036 40.2025 20.6438 39.9768C20.8843 39.7511 21.2635 39.7631 21.4892 40.0034L25.0274 43.7714C25.1936 43.9484 25.4254 44.0487 25.6682 44.0487H29.8221C30.0648 44.0487 30.2967 43.9482 30.4629 43.7714L34.0012 40.0034C34.227 39.7629 34.6062 39.7512 34.8463 39.9766C35.0868 40.2025 35.0986 40.5817 34.873 40.822L30.8343 45.1227C30.6811 45.2857 30.596 45.5009 30.596 45.7243V49.9498C30.596 50.4351 30.9894 50.8287 31.4749 50.8287C31.9605 50.8287 32.3538 50.4351 32.3538 49.9498V46.0724L36.1545 42.0253C37.0436 41.0783 36.9965 39.5845 36.0496 38.6951C35.5911 38.2644 34.9927 38.0393 34.363 38.0578Z" fill="#CDADAD"/>
</svg>
