<svg width="56" height="36" viewBox="0 0 56 36" fill="none" xmlns="http://www.w3.org/2000/svg">
<path d="M27.3392 24.2511C26.4477 24.2511 25.1331 24.1524 23.927 23.6895L14.279 19.9728H9.55273V25.7615C9.55273 27.5414 10.877 29.5619 12.5093 30.2714L24.1919 35.3566C25.8242 36.065 28.474 36.068 30.108 35.3635L41.9181 30.2634C43.5509 29.5588 44.8756 27.5414 44.8756 25.7615V19.9728H39.6601L31.1106 23.5771C30.0821 24.0116 28.7414 24.2511 27.3392 24.2511Z" fill="#CDADAD"/>
<path d="M1.2426 12.4155L24.5076 21.38C26.1698 22.0189 28.8456 21.9772 30.4863 21.2855L52.7046 11.9196V25.7377L51.3322 30.3181H55.3015L53.8815 25.6901V11.3611H53.8416C54.8006 10.6992 54.577 9.8743 53.157 9.36648L30.5529 1.32288C28.8755 0.724665 26.1658 0.749998 24.4988 1.37604L1.25296 10.1213C-0.414066 10.7485 -0.418096 11.776 1.2426 12.4155Z" fill="black"/>
</svg>
