<svg width="60" height="50" viewBox="0 0 60 50" fill="none" xmlns="http://www.w3.org/2000/svg">
<path d="M58.5848 10.0709C38.2275 6.45962 39.5453 6.6482 39.0843 6.71744C38.9368 6.7394 37.13 7.06353 32.9187 7.81523C31.1531 3.27133 26.3094 0 20.625 0C14.9353 0 10.0877 3.2775 8.32629 7.8281L2.10047 6.72392C1.01531 6.53189 0 7.2723 0 8.26278V45.0792C0 45.8278 0.592617 46.4721 1.41516 46.618C21.6005 50.1988 20.2789 49.9677 20.4128 49.9822C20.8372 50.0288 19.5254 50.2225 39.3761 46.679L57.8995 49.965C58.9853 50.1573 60 49.4156 60 48.4262V11.6097C60 10.8612 59.4074 10.2169 58.5848 10.0709ZM20.625 3.13777C25.8589 3.13777 30.1172 6.93823 30.1172 11.6097C30.1172 15.5511 23.051 25.5559 20.625 28.8663C18.2017 25.5595 11.1328 15.5519 11.1328 11.6097C11.1328 6.93823 15.3911 3.13777 20.625 3.13777ZM3.51562 10.174L7.6418 10.9058C7.62609 11.1388 7.61719 11.3733 7.61719 11.6096C7.61719 14.2259 9.53473 18.448 13.4795 24.5173C15.7829 28.0611 18.0537 31.1038 18.8672 32.1756V46.5147L3.51562 43.7914V10.174ZM22.3828 32.1756C23.1962 31.1038 25.4671 28.0613 27.7705 24.5173C31.7153 18.448 33.6328 14.2259 33.6328 11.6097C33.6328 11.3688 33.6236 11.1297 33.6073 10.8923L37.6172 10.1764V43.7931L22.3828 46.5125V32.1756ZM56.4844 46.5148L41.1328 43.7915V10.1741L56.4844 12.8974V46.5148Z" fill="white"/>
<path d="M20.625 16.5255C23.662 16.5255 26.1328 14.3203 26.1328 11.6097C26.1328 8.89907 23.662 6.69385 20.625 6.69385C17.588 6.69385 15.1172 8.89907 15.1172 11.6097C15.1172 14.3203 17.588 16.5255 20.625 16.5255ZM20.625 9.83162C21.7235 9.83162 22.6172 10.6292 22.6172 11.6097C22.6172 12.5901 21.7235 13.3878 20.625 13.3878C19.5265 13.3878 18.6328 12.5901 18.6328 11.6097C18.6328 10.6292 19.5265 9.83162 20.625 9.83162Z" fill="white"/>
</svg>
