<svg width="63" height="53" viewBox="0 0 63 53" fill="none" xmlns="http://www.w3.org/2000/svg">
<path d="M31.4988 22.8742L59.0603 5.3773V20.6242H62.9977V0H45.2796V3.74986H54.5324L31.4988 18.3743L8.46531 3.74986H25.5928V0H0V37.4986H27.5615V33.7487H6.51041L22.6988 17.2906L31.4988 22.8742ZM3.93735 30.8801V5.3773L19.3797 15.1869L3.93735 30.8801Z" fill="white"/>
<path d="M41.3423 0H37.4049V3.74986H41.3423V0Z" fill="white"/>
<path d="M33.4675 0H29.5302V3.74986H33.4675V0Z" fill="white"/>
<path d="M48.0357 22.5178C39.3391 22.1148 31.9462 28.5025 31.523 36.785C31.4707 37.8082 31.5286 38.834 31.6957 39.8459C32.7553 46.0779 37.7784 51.0217 44.2834 52.2355C45.2573 52.4083 46.2458 52.4949 47.2364 52.4942C50.1013 52.4982 52.9131 51.758 55.369 50.3531L53.3354 47.1432C47.7421 50.3409 40.4861 48.6148 37.1285 43.2878C33.7709 37.9609 35.5833 31.0504 41.1766 27.8527C43.1829 26.7057 45.5016 26.152 47.8388 26.2621C54.2275 26.7604 59.1261 31.8757 59.0603 37.9804V39.3735C59.0603 40.409 58.1789 41.2484 57.0916 41.2484C56.0043 41.2484 55.1229 40.409 55.1229 39.3735V37.4985C55.1587 33.3225 51.6332 29.9095 47.2483 29.8754C42.8635 29.8413 39.2799 33.199 39.2441 37.375C39.2083 41.5511 42.7338 44.964 47.1187 44.9981C49.1475 45.014 51.1056 44.2894 52.5912 42.9733C54.6646 45.3539 58.3719 45.6831 60.8715 43.7084C62.2252 42.639 63.0053 41.0486 62.9976 39.3736V37.9805C63.1406 29.85 56.5559 23.0449 48.0357 22.5178ZM47.2482 41.2484C45.0737 41.2484 43.3109 39.5695 43.3109 37.4985C43.3109 35.4275 45.0737 33.7487 47.2482 33.7487C49.4227 33.7487 51.1856 35.4275 51.1856 37.4985C51.1856 39.5695 49.4227 41.2484 47.2482 41.2484Z" fill="white"/>
</svg>
